<?xml version="1.0" standalone="no"?>
<svg xmlns:xlink="http://www.w3.org/1999/xlink" id="wave" style="transform:rotate(180deg); transition: 0.3s" viewBox="0 0 1440 100" version="1.1" xmlns="http://www.w3.org/2000/svg"><defs><linearGradient id="sw-gradient-0" x1="0" x2="0" y1="1" y2="0"><stop stop-color="rgba(255, 249, 234, 1)" offset="0%"/><stop stop-color="rgba(255, 249, 234, 1)" offset="100%"/></linearGradient></defs><path style="transform:translate(0, 0px); opacity:1" fill="url(#sw-gradient-0)" d="M0,90L17.1,90C34.3,90,69,90,103,86.7C137.1,83,171,77,206,68.3C240,60,274,50,309,40C342.9,30,377,20,411,15C445.7,10,480,10,514,16.7C548.6,23,583,37,617,43.3C651.4,50,686,50,720,41.7C754.3,33,789,17,823,13.3C857.1,10,891,20,926,26.7C960,33,994,37,1029,35C1062.9,33,1097,27,1131,23.3C1165.7,20,1200,20,1234,23.3C1268.6,27,1303,33,1337,45C1371.4,57,1406,73,1440,71.7C1474.3,70,1509,50,1543,38.3C1577.1,27,1611,23,1646,26.7C1680,30,1714,40,1749,36.7C1782.9,33,1817,17,1851,18.3C1885.7,20,1920,40,1954,50C1988.6,60,2023,60,2057,53.3C2091.4,47,2126,33,2160,38.3C2194.3,43,2229,67,2263,75C2297.1,83,2331,77,2366,68.3C2400,60,2434,50,2451,45L2468.6,40L2468.6,100L2451.4,100C2434.3,100,2400,100,2366,100C2331.4,100,2297,100,2263,100C2228.6,100,2194,100,2160,100C2125.7,100,2091,100,2057,100C2022.9,100,1989,100,1954,100C1920,100,1886,100,1851,100C1817.1,100,1783,100,1749,100C1714.3,100,1680,100,1646,100C1611.4,100,1577,100,1543,100C1508.6,100,1474,100,1440,100C1405.7,100,1371,100,1337,100C1302.9,100,1269,100,1234,100C1200,100,1166,100,1131,100C1097.1,100,1063,100,1029,100C994.3,100,960,100,926,100C891.4,100,857,100,823,100C788.6,100,754,100,720,100C685.7,100,651,100,617,100C582.9,100,549,100,514,100C480,100,446,100,411,100C377.1,100,343,100,309,100C274.3,100,240,100,206,100C171.4,100,137,100,103,100C68.6,100,34,100,17,100L0,100Z"/></svg>